<svg width="27" height="27" viewBox="0 0 27 27" fill="none" xmlns="http://www.w3.org/2000/svg">
<g clip-path="url(#clip0_1_637)">
<path fill-rule="evenodd" clip-rule="evenodd" d="M13.4492 0.182129C6.30241 0.182129 0.509155 5.98444 0.509155 13.1442C0.509155 18.8701 4.21647 23.7291 9.35884 25.4424C10.0058 25.5614 10.2414 25.1616 10.2414 24.8174C10.2414 24.5107 10.231 23.6942 10.2245 22.6137C6.62462 23.3965 5.86503 20.8758 5.86503 20.8758C5.27756 19.3774 4.42869 18.9788 4.42869 18.9788C3.25374 18.1765 4.51798 18.1921 4.51798 18.1921C5.81586 18.2826 6.4991 19.5275 6.4991 19.5275C7.65335 21.5073 9.52836 20.9354 10.2646 20.6041C10.3837 19.7669 10.7175 19.1962 11.0876 18.8727C8.21494 18.5453 5.19345 17.4325 5.19345 12.4661C5.19345 11.0518 5.69811 9.89362 6.52498 8.98782C6.39169 8.66044 5.94785 7.34185 6.65179 5.55871C6.65179 5.55871 7.73875 5.20933 10.2103 6.88636C11.2659 6.59846 12.355 6.45182 13.4492 6.45028C14.5491 6.45546 15.6555 6.59909 16.6894 6.88636C19.1596 5.20933 20.244 5.55742 20.244 5.55742C20.9505 7.34185 20.5054 8.66044 20.3734 8.98782C21.2016 9.89362 21.7036 11.0518 21.7036 12.4661C21.7036 17.4454 18.677 18.5414 15.7952 18.8624C16.2598 19.2622 16.6726 20.0528 16.6726 21.2627C16.6726 22.9941 16.657 24.3929 16.657 24.8174C16.657 25.1642 16.8899 25.5679 17.5473 25.4411C20.124 24.5768 22.364 22.9246 23.9506 20.718C25.5373 18.5114 26.3903 15.862 26.3892 13.1442C26.3892 5.98444 20.5947 0.182129 13.4492 0.182129Z" fill="black"/>
</g>
<defs>
<clipPath id="clip0_1_637">
<rect width="25.8801" height="25.8801" fill="white" transform="translate(0.509155 0.182129)"/>
</clipPath>
</defs>
</svg>
