<svg width="22" height="23" viewBox="0 0 22 23" fill="none" xmlns="http://www.w3.org/2000/svg">
<path d="M18.7299 11.8462C18.9492 11.6582 19.0589 11.5641 19.0991 11.4523C19.1344 11.3541 19.1344 11.2467 19.0991 11.1485C19.0589 11.0366 18.9492 10.9426 18.7299 10.7545L11.118 4.23005C10.7403 3.90637 10.5515 3.74454 10.3917 3.74057C10.2528 3.73713 10.12 3.79816 10.0323 3.90588C9.93123 4.02984 9.93123 4.27851 9.93123 4.77587V8.63565C8.01298 8.97124 6.25734 9.94324 4.95265 11.4027C3.53025 12.9938 2.74343 15.0529 2.74232 17.1871V17.7371C3.68528 16.6012 4.86261 15.6825 6.19368 15.0439C7.36721 14.4809 8.6358 14.1475 9.93123 14.0596V17.8249C9.93123 18.3222 9.93123 18.5709 10.0323 18.6949C10.12 18.8026 10.2528 18.8636 10.3917 18.8602C10.5515 18.8562 10.7403 18.6944 11.118 18.3707L18.7299 11.8462Z" stroke="#98A2B3" stroke-width="1.79723" stroke-linecap="round" stroke-linejoin="round"/>
</svg>
