<svg width="27" height="27" viewBox="0 0 27 27" fill="none" xmlns="http://www.w3.org/2000/svg">
<path d="M22.1811 12.3133C23.2977 12.3133 24.2028 11.4081 24.2028 10.2916C24.2028 9.175 23.2976 8.26985 22.181 8.26985C21.0644 8.26985 20.1591 9.17507 20.1591 10.2917V12.3133H22.1811ZM16.5197 12.3133C17.6363 12.3133 18.5416 11.408 18.5416 10.2914V4.63046C18.5416 3.51381 17.6363 2.60858 16.5197 2.60858C15.403 2.60858 14.4978 3.51381 14.4978 4.63046V10.2914C14.4978 11.408 15.403 12.3133 16.5197 12.3133Z" fill="#2EB67D"/>
<path d="M5.19699 13.9311C4.08043 13.9311 3.17529 14.8362 3.17529 15.9528C3.17529 17.0693 4.08052 17.9745 5.19708 17.9745C6.31373 17.9745 7.21905 17.0692 7.21905 15.9526V13.9311H5.19699ZM10.8584 13.9311C9.74178 13.9311 8.83655 14.8363 8.83655 15.9529V21.6139C8.83655 22.7305 9.74178 23.6357 10.8584 23.6357C11.9751 23.6357 12.8803 22.7305 12.8803 21.6139V15.9529C12.8803 14.8363 11.9751 13.9311 10.8584 13.9311Z" fill="#E01E5A"/>
<path d="M14.498 21.6142C14.498 22.7308 15.4031 23.6359 16.5197 23.6359C17.6362 23.6359 18.5414 22.7307 18.5414 21.6141C18.5414 20.4975 17.6361 19.5922 16.5195 19.5922L14.498 19.5922L14.498 21.6142ZM14.498 15.9528C14.498 17.0694 15.4032 17.9747 16.5198 17.9747L22.1808 17.9747C23.2974 17.9747 24.2026 17.0694 24.2026 15.9528C24.2026 14.8361 23.2974 13.9309 22.1808 13.9309L16.5198 13.9309C15.4032 13.9309 14.498 14.8361 14.498 15.9528Z" fill="#ECB22E"/>
<path d="M12.8801 4.6301C12.8801 3.51354 11.9749 2.60839 10.8584 2.60839C9.74183 2.60839 8.83668 3.51363 8.83668 4.63018C8.83668 5.74684 9.74191 6.65215 10.8586 6.65215L12.8801 6.65215L12.8801 4.6301ZM12.8801 10.2915C12.8801 9.17488 11.9749 8.26966 10.8582 8.26966L5.1973 8.26966C4.08064 8.26966 3.17542 9.17488 3.17542 10.2915C3.17542 11.4082 4.08064 12.3134 5.1973 12.3134L10.8582 12.3134C11.9749 12.3134 12.8801 11.4082 12.8801 10.2915Z" fill="#36C5F0"/>
</svg>
