<svg width="22" height="23" viewBox="0 0 22 23" fill="none" xmlns="http://www.w3.org/2000/svg">
<path d="M11.1669 12.199C11.6632 12.199 12.0655 11.7967 12.0655 11.3004C12.0655 10.8041 11.6632 10.4018 11.1669 10.4018C10.6706 10.4018 10.2683 10.8041 10.2683 11.3004C10.2683 11.7967 10.6706 12.199 11.1669 12.199Z" stroke="#98A2B3" stroke-width="1.79723" stroke-linecap="round" stroke-linejoin="round"/>
<path d="M17.4572 12.199C17.9535 12.199 18.3558 11.7967 18.3558 11.3004C18.3558 10.8041 17.9535 10.4018 17.4572 10.4018C16.9609 10.4018 16.5586 10.8041 16.5586 11.3004C16.5586 11.7967 16.9609 12.199 17.4572 12.199Z" stroke="#98A2B3" stroke-width="1.79723" stroke-linecap="round" stroke-linejoin="round"/>
<path d="M4.87664 12.199C5.37293 12.199 5.77525 11.7967 5.77525 11.3004C5.77525 10.8041 5.37293 10.4018 4.87664 10.4018C4.38035 10.4018 3.97803 10.8041 3.97803 11.3004C3.97803 11.7967 4.38035 12.199 4.87664 12.199Z" stroke="#98A2B3" stroke-width="1.79723" stroke-linecap="round" stroke-linejoin="round"/>
</svg>
